#!OML:ASF H:\Terrain\Patient Classification 1\Animal1\Tuesday\Animal1.ASF
:FULLY-SPECIFIED
:DEGREES
765
root 3.01902 15.9455 -4.56967 4.82771 34.671 -361.552
lowerback 10.483 -1.17634 1.60359
upperback 3.57673 -1.34453 0.222051
thorax -2.18463 -0.64646 -0.509448
lowerneck -8.03106 8.58125 0.444026
upperneck -9.97364 11.7732 2.11194
head -1.92772 5.91112 0.653933
rclavicle 7.83957e-014 -3.55825e-014
rhumerus -16.1404 45.9989 0.888746
rradius 21.2714
rwrist -25.4754
rhand -6.76491 13.8422
rfingers 7.12502
rthumb 19.0969 -15.2403
lclavicle 7.83957e-014 -3.55825e-014
lhumerus -9.34958 -9.99509 5.48098
lradius 19.4831
lwrist -35.503
lhand 17.3291 47.8112
lfingers 7.12502
lthumb -137.961 252.388
rfemur -22.3231 -2.00445 27.875
rtibia 41.7667
rfoot -19.0297 -32.0497
rtoes 12.8526
lfemur -34.7646 -15.4195 1.56518
ltibia 22.1751
lfoot -12.6787 20.971
ltoes -8.55647
766
root 3.05103 15.9546 -4.54324 5.06468 34.6513 -361.369
lowerback 10.3649 -1.09853 1.37882
upperback 3.49737 -1.27047 0.119717
thorax -2.19833 -0.61107 -0.499292
lowerneck -8.27548 8.47673 0.567918
upperneck -9.65105 11.6075 2.15627
head -1.77527 5.82858 0.667993
rclavicle 8.12035e-014 -3.8763e-015
rhumerus -16.844 46.5844 0.205301
rradius 21.3676
rwrist -26.0089
rhand -6.84698 14.033
rfingers 7.12502
rthumb 19.018 -15.0572
lclavicle 8.12035e-014 -3.8763e-015
lhumerus -9.28127 -9.68289 5.45574
lradius 19.3729
lwrist -36.0634
lhand 17.4295 47.2934
lfingers 7.12502
lthumb -137.867 251.839
rfemur -22.2718 -1.97688 27.6712
rtibia 41.7048
rfoot -19.7044 -31.7386
rtoes 14.2709
lfemur -34.7634 -16.559 2.13105
ltibia 21.4116
lfoot -14.4063 21.4279
ltoes -2.78996
767
root 3.08804 15.9601 -4.51721 5.04306 34.5966 -361.635
lowerback 10.2187 -1.0432 1.51662
upperback 3.41541 -1.18707 0.128854
thorax -2.20393 -0.570559 -0.578983
lowerneck -8.66698 8.40459 0.46486
upperneck -9.21162 11.5054 2.39445
head -1.59013 5.78569 0.785675
rclavicle -4.14466e-014 9.64106e-015
rhumerus -17.3568 46.8174 -0.392185
rradius 21.3568
rwrist -26.0478
rhand -6.57045 14.1431
rfingers 7.12502
rthumb 19.2839 -14.9208
lclavicle -4.14466e-014 9.64106e-015
lhumerus -9.3273 -8.82907 5.44786
lradius 19.2901
lwrist -36.9091
lhand 17.5577 46.9108
lfingers 7.12502
lthumb -137.747 251.415
rfemur -22.1648 -1.94104 27.8475
rtibia 41.597
rfoot -20.5076 -31.3669
rtoes 15.7556
lfemur -34.7508 -17.4076 2.9557
ltibia 20.6477
lfoot -14.0164 23.1388
ltoes -8.0932
768
root 3.1261 15.9616 -4.49138 4.88696 34.5824 -361.982
lowerback 10.1537 -1.02051 1.6214
upperback 3.37427 -1.14656 0.192567
thorax -2.21069 -0.551031 -0.577464
lowerneck -8.65996 8.38641 0.491635
upperneck -9.33316 11.4886 2.44124
head -1.63188 5.7753 0.792161
rclavicle 6.4605e-016 -1.19271e-014
rhumerus -17.4997 46.2404 -0.672443
rradius 21.2108
rwrist -25.3048
rhand -6.3868 14.2339
rfingers 7.12502
rthumb 19.4605 -14.8122
lclavicle 6.4605e-016 -1.19271e-014
lhumerus -9.49036 -8.52198 5.4536
lradius 19.3212
lwrist -36.8788
lhand 17.4119 46.9353
lfingers 7.12502
lthumb -137.883 251.486
rfemur -21.9373 -1.90484 28.0738
rtibia 41.4194
rfoot -20.5298 -31.5332
rtoes 15.1464
lfemur -34.753 -18.1289 3.71829
ltibia 20.0125
lfoot -13.1926 24.0578
ltoes -10.8814
769
root 3.16174 15.9686 -4.46613 4.93554 34.5535 -362.111
lowerback 10.1528 -1.01461 1.54751
upperback 3.23039 -1.14635 0.203124
thorax -2.35783 -0.553546 -0.523577
lowerneck -8.42266 8.42271 0.592295
upperneck -9.64628 11.5463 2.39134
head -1.76357 5.79631 0.74251
rclavicle 1.04511e-013 -2.36554e-014
rhumerus -17.6058 45.7669 -0.897382
rradius 21.0875
rwrist -24.8216
rhand -6.12872 14.2229
rfingers 7.12502
rthumb 19.7086 -14.798
lclavicle 1.04511e-013 -2.36554e-014
lhumerus -9.83081 -8.33269 5.48254
lradius 19.3833
lwrist -36.5477
lhand 16.7345 47.0256
lfingers 7.12502
lthumb -138.518 251.787
rfemur -21.784 -1.88918 28.1168
rtibia 41.1648
rfoot -19.9884 -31.9515
rtoes 13.3264
lfemur -34.8404 -18.8958 4.37316
ltibia 19.5317
lfoot -14.715 23.4271
ltoes -5.32789
770
root 3.2051 15.9606 -4.44304 4.98663 34.4679 -362.313
lowerback 10.1414 -0.977131 1.64012
upperback 3.06812 -1.08798 0.217503
thorax -2.51996 -0.527385 -0.566395
lowerneck -8.31584 8.37389 0.617905
upperneck -9.81185 11.4877 2.37768
head -1.83147 5.76361 0.724738
rclavicle 5.47155e-014 -9.74045e-015
rhumerus -18.0566 46.042 -1.38608
rradius 21.0525
rwrist -25.1451
rhand -6.19233 13.7348
rfingers 7.12502
rthumb 19.6475 -15.2924
lclavicle 5.47155e-014 -9.74045e-015
lhumerus -10.16 -8.15672 5.55448
lradius 19.4695
lwrist -36.1787
lhand 16.2881 47.0983
lfingers 7.12502
lthumb -138.937 251.995
rfemur -21.6784 -1.67528 28.1795
rtibia 40.9261
rfoot -19.4701 -32.32
rtoes 11.8541
lfemur -35.0036 -19.2994 4.89851
ltibia 19.205
lfoot -15.2073 23.18
ltoes -3.72653
771
root 3.25054 15.951 -4.42443 4.91333 34.4232 -362.539
lowerback 10.2268 -0.929814 1.72521
upperback 3.00554 -1.01347 0.259225
thorax -2.6308 -0.491824 -0.578336
lowerneck -8.40797 8.26303 0.627397
upperneck -9.89712 11.3396 2.35446
head -1.8397 5.69011 0.717453
rclavicle -5.08392e-014 3.97569e-016
rhumerus -18.709 46.6951 -2.07037
rradius 21.0568
rwrist -25.8651
rhand -6.48169 13.3367
rfingers 7.12502
rthumb 19.3693 -15.7186
lclavicle -5.08392e-014 3.97569e-016
lhumerus -10.2652 -8.65099 5.61635
lradius 19.4165
lwrist -35.3254
lhand 16.1298 47.1429
lfingers 7.12502
lthumb -139.086 252.087
rfemur -21.4777 -1.53764 28.2532
rtibia 40.7357
rfoot -19.275 -32.5179
rtoes 11.4734
lfemur -35.1049 -19.5165 5.23376
ltibia 18.9486
lfoot -14.9299 23.4387
ltoes -3.14675
772
root 3.29393 15.9429 -4.40789 4.8251 34.4667 -362.775
lowerback 10.346 -0.925165 1.74207
upperback 2.91548 -0.999637 0.344836
thorax -2.78825 -0.486851 -0.498335
lowerneck -8.3643 8.27678 0.618246
upperneck -10.128 11.3666 2.28431
head -1.9187 5.70268 0.689617
rclavicle -4.35338e-014 -1.68967e-014
rhumerus -19.188 46.9169 -2.54735
rradius 21.1143
rwrist -26.0535
rhand -6.13411 13.1766
rfingers 7.12502
rthumb 19.7034 -15.8448
lclavicle -4.35338e-014 -1.68967e-014
lhumerus -10.4444 -9.55774 5.67641
lradius 19.3521
lwrist -34.4786
lhand 15.6631 47.1991
lfingers 7.12502
lthumb -139.525 252.28
rfemur -21.3149 -1.70408 28.3699
rtibia 40.5783
rfoot -19.1515 -32.5798
rtoes 10.6669
lfemur -35.2506 -19.8511 5.6325
ltibia 18.7874
lfoot -15.592 23.7644
ltoes -0.0502793
773
root 3.34023 15.937 -4.38726 4.75688 34.4265 -363.016
lowerback 10.3849 -0.898139 1.80535
upperback 2.80691 -0.954279 0.401582
thorax -2.92143 -0.466554 -0.47933
lowerneck -8.2226 8.35777 0.675108
upperneck -10.5199 11.4833 2.12945
head -2.05885 5.7569 0.617152
rclavicle 7.31031e-014 -2.18663e-015
rhumerus -19.5402 46.3419 -2.85233
rradius 21.0861
rwrist -25.1378
rhand -5.54878 12.9516
rfingers 7.12502
rthumb 20.2661 -16.0111
lclavicle 7.31031e-014 -2.18663e-015
lhumerus -10.7595 -9.54762 5.68564
lradius 19.4414
lwrist -34.6889
lhand 15.0253 46.8539
lfingers 7.12502
lthumb -140.125 252.117
rfemur -21.1262 -1.78356 28.48
rtibia 40.365
rfoot -18.9021 -32.6263
rtoes 9.48106
lfemur -35.3681 -20.084 5.96329
ltibia 18.7057
lfoot -15.351 24.3841
ltoes -2.30534
774
root 3.38899 15.9406 -4.36293 4.69354 34.295 -363.219
lowerback 10.3963 -0.849428 1.84441
upperback 2.75201 -0.885657 0.39806
thorax -2.98378 -0.433754 -0.513102
lowerneck -8.28356 8.36231 0.808494
upperneck -10.7282 11.4853 2.05538
head -2.10474 5.75395 0.571291
rclavicle 4.19436e-014 9.93923e-016
rhumerus -19.9433 45.7615 -3.28667
rradius 20.9386
rwrist -24.1333
rhand -5.55605 13.2147
rfingers 7.12502
rthumb 20.2591 -15.7488
lclavicle 4.19436e-014 9.93923e-016
lhumerus -10.9234 -9.41913 5.59545
lradius 19.4459
lwrist -35.0682
lhand 14.9353 46.361
lfingers 7.12502
lthumb -140.209 251.65
rfemur -20.8508 -1.72481 28.537
rtibia 40.1333
rfoot -18.9775 -32.5799
rtoes 9.3866
lfemur -35.4616 -20.3787 6.27975
ltibia 18.7345
lfoot -15.0933 24.4345
ltoes -3.64048
775
root 3.43821 15.95 -4.34147 4.56004 34.2271 -363.498
lowerback 10.4557 -0.796258 1.95757
upperback 2.73637 -0.80043 0.43293
thorax -3.03176 -0.392423 -0.550723
lowerneck -8.55843 8.27677 0.767494
upperneck -10.6629 11.3718 2.13678
head -2.04445 5.70164 0.616552
rclavicle 1.10325e-014 1.09332e-014
rhumerus -20.3111 45.1272 -3.65555
rradius 20.7156
rwrist -23.3805
rhand -5.43528 13.6683
rfingers 7.12502
rthumb 20.3751 -15.2828
lclavicle 1.10325e-014 1.09332e-014
lhumerus -10.8665 -9.43629 5.59905
lradius 19.2835
lwrist -35.4586
lhand 15.472 46.3876
lfingers 7.12502
lthumb -139.704 251.524
rfemur -20.5524 -1.68195 28.6399
rtibia 39.929
rfoot -19.3059 -32.4161
rtoes 9.83139
lfemur -35.4902 -20.5833 6.60456
ltibia 18.733
lfoot -15.6594 23.875
ltoes 0.520984
776
root 3.48916 15.9481 -4.32626 4.50389 34.2282 -363.725
lowerback 10.4943 -0.750348 2.06408
upperback 2.72119 -0.725689 0.472165
thorax -3.06773 -0.356212 -0.579094
lowerneck -8.81699 8.20541 0.734083
upperneck -10.6753 11.275 2.12912
head -2.00628 5.65816 0.630442
rclavicle -1.99779e-014 2.36554e-014
rhumerus -20.6233 44.771 -3.93608
rradius 20.5841
rwrist -23.1342
rhand -4.71467 13.5071
rfingers 7.12502
rthumb 21.0675 -15.3684
lclavicle -1.99779e-014 2.36554e-014
lhumerus -10.9204 -8.9846 5.67915
lradius 19.2018
lwrist -36.0094
lhand 15.733 46.5744
lfingers 7.12502
lthumb -139.459 251.635
rfemur -20.3737 -1.67259 28.7065
rtibia 39.7939
rfoot -19.2359 -32.327
rtoes 9.97255
lfemur -35.548 -20.4591 6.69955
ltibia 18.7192
lfoot -16.0726 23.2879
ltoes 2.01745
